<svg width="13" height="8" viewBox="0 0 13 8" fill="none" xmlns="http://www.w3.org/2000/svg">
<path d="M12.8745 5.60598L11.0723 4.13301C10.962 4.04311 10.962 3.89549 11.0723 3.80532L12.8745 2.33271C12.9852 2.24262 13.0314 2.09042 12.9774 1.99467C12.9233 1.8992 12.7722 1.86521 12.642 1.91915L10.499 2.80685C10.3687 2.86134 10.246 2.78708 10.2265 2.64233L9.90419 0.263056C9.88431 0.118402 9.77971 0 9.67139 0C9.56359 0 9.45908 0.118402 9.43972 0.262966L9.11728 2.64242C9.09757 2.78717 8.97499 2.86125 8.84454 2.80694L6.737 1.93399C6.6063 1.87987 6.39338 1.87987 6.26302 1.93399L4.15514 2.80694C4.02478 2.86125 3.90203 2.78717 3.88249 2.64242L3.56048 0.262966C3.5406 0.118402 3.43617 0 3.32829 0C3.22006 0 3.11538 0.118402 3.09593 0.262966L2.77348 2.64242C2.75395 2.78717 2.63128 2.86125 2.50092 2.80694L0.358028 1.91942C0.227755 1.86521 0.076908 1.89938 0.0227932 1.99476C-0.0312351 2.0906 0.0148402 2.24289 0.125145 2.3328L1.92753 3.80541C2.03792 3.89558 2.03792 4.0432 1.92753 4.13319L0.125145 5.60598C0.0144945 5.69606 -0.0313216 5.85735 0.0226203 5.96415C0.0768216 6.07114 0.227669 6.11411 0.357769 6.05981L2.48147 5.17283C2.612 5.11862 2.73337 5.19243 2.75161 5.33717L3.05798 7.73721C3.07648 7.88169 3.19784 8 3.32769 8C3.45735 8 3.57881 7.88178 3.5974 7.73721L3.90428 5.33717C3.92243 5.19243 4.04432 5.1187 4.17416 5.17283L6.26302 6.0447C6.39321 6.09918 6.60621 6.09918 6.73649 6.0447L8.82501 5.17283C8.95502 5.11862 9.07656 5.19243 9.09515 5.33717L9.40203 7.73721C9.42035 7.88169 9.54181 8 9.67131 8C9.80115 8 9.9226 7.88178 9.94102 7.73721L10.2479 5.33717C10.2666 5.19243 10.3879 5.1187 10.518 5.17283L12.6419 6.05981C12.7716 6.11411 12.9229 6.07105 12.977 5.96424C13.0312 5.85762 12.9851 5.69633 12.8745 5.60625L12.8745 5.60598ZM8.28939 4.15171L6.70225 5.42249C6.59117 5.51149 6.40894 5.51149 6.29821 5.42249L4.71055 4.15171C4.59956 4.06271 4.59869 3.91617 4.70882 3.82581L6.29942 2.52285C6.40955 2.4325 6.59013 2.4325 6.70035 2.52285L8.29095 3.82581C8.40134 3.91608 8.40047 4.06262 8.28922 4.1518L8.28939 4.15171Z" fill="black"/>
</svg>
