<svg width="7" height="8" viewBox="0 0 7 8" fill="none" xmlns="http://www.w3.org/2000/svg">
<g clip-path="url(#clip0_5065_60494)">
<path d="M2.60945 5.17281C2.74616 5.11862 2.87398 5.19243 2.89351 5.33702L3.21624 7.73707C3.23551 7.88153 3.36324 7.99984 3.49941 7.99984C3.63558 7.99984 3.76365 7.88161 3.78301 7.73707L4.10574 5.33702C4.12539 5.19227 4.253 5.11854 4.38971 5.17281L6.62327 6.0597C6.75961 6.114 6.91872 6.07091 6.9756 5.96413C7.03249 5.85736 6.98404 5.69619 6.8679 5.60612V5.60588L4.97276 4.13289C4.85679 4.04297 4.85679 3.89539 4.97276 3.80519L6.86799 2.3326C6.98433 2.24249 7.03296 2.09029 6.97615 1.99457C6.91935 1.89885 6.76032 1.86509 6.62344 1.91904L4.36981 2.80684C4.23284 2.86135 4.10371 2.7871 4.08305 2.64232L3.74429 0.263054C3.72346 0.11839 3.6134 0 3.4995 0C3.38559 0 3.27646 0.11839 3.25588 0.262974L2.91678 2.64244C2.89604 2.78718 2.76716 2.86123 2.63002 2.80696L0.376309 1.91912C0.239382 1.86517 0.0804835 1.89909 0.0235534 1.99465C-0.0333768 2.09021 0.0154145 2.24257 0.131763 2.33268L2.02694 3.80527C2.14296 3.89547 2.14296 4.04305 2.02694 4.13297H2.02665L0.131552 5.60592V5.6062C0.0152879 5.69627 -0.0331659 5.85756 0.0238485 5.96417C0.080863 6.07079 0.239846 6.11408 0.376183 6.05978L2.60974 5.17277" fill="black"/>
</g>
<defs>
<clipPath id="clip0_5065_60494">
<rect width="7" height="8" fill="white"/>
</clipPath>
</defs>
</svg>
