<svg width="180" height="180" viewBox="0 0 180 180" fill="none" xmlns="http://www.w3.org/2000/svg">
<path fill-rule="evenodd" clip-rule="evenodd" d="M89.3895 1.50207C89.593 1.50069 89.7967 1.5 90.0005 1.5C90.2043 1.5 90.408 1.50069 90.6115 1.50207C97.5149 1.54889 103.073 7.18315 103.026 14.0865C102.98 20.9899 97.3454 26.5483 90.442 26.5015C90.295 26.5005 90.1478 26.5 90.0005 26.5C89.8532 26.5 89.706 26.5005 89.559 26.5015C82.6556 26.5483 77.0213 20.9899 76.9745 14.0865C76.9277 7.18315 82.4861 1.54889 89.3895 1.50207ZM116.69 17.725C120.106 11.7258 127.739 9.6318 133.738 13.0478C134.091 13.2491 134.443 13.4527 134.793 13.6586C140.745 17.1571 142.733 24.8177 139.235 30.7692C135.736 36.7207 128.076 38.7092 122.124 35.2108C121.873 35.063 121.621 34.917 121.367 34.7727C115.368 31.3566 113.274 23.7241 116.69 17.725ZM63.311 17.725C66.7271 23.7241 64.633 31.3567 58.6339 34.7727C58.3804 34.917 58.128 35.063 57.8767 35.2108C51.9253 38.7092 44.2646 36.7207 40.7661 30.7692C37.2677 24.8177 39.2562 17.1571 45.2077 13.6586C45.558 13.4527 45.9099 13.2491 46.2633 13.0478C52.2625 9.6318 59.895 11.7258 63.311 17.725ZM149.231 40.7656C155.183 37.2672 162.843 39.2557 166.342 45.2072C166.548 45.5575 166.751 45.9094 166.953 46.2628C170.369 52.262 168.275 59.8945 162.276 63.3105C156.276 66.7266 148.644 64.6325 145.228 58.6334C145.083 58.3799 144.937 58.1275 144.79 57.8762C141.291 51.9248 143.28 44.2641 149.231 40.7656ZM30.7697 40.7656C36.7212 44.2641 38.7097 51.9248 35.2113 57.8762C35.0635 58.1275 34.9175 58.3799 34.7732 58.6334C31.3571 64.6325 23.7246 66.7266 17.7255 63.3105C11.7263 59.8945 9.63229 52.262 13.0483 46.2628C13.2496 45.9094 13.4532 45.5575 13.6591 45.2072C17.1575 39.2558 24.8182 37.2672 30.7697 40.7656ZM14.087 76.974C20.9904 77.0208 26.5488 82.6551 26.502 89.5585C26.501 89.7055 26.5005 89.8527 26.5005 90C26.5005 90.1473 26.501 90.2945 26.502 90.4415C26.5488 97.3449 20.9904 102.979 14.087 103.026C7.18364 103.073 1.54937 97.5144 1.50256 90.611C1.50118 90.4075 1.50049 90.2038 1.50049 90C1.50049 89.7962 1.50118 89.5925 1.50256 89.389C1.54937 82.4856 7.18364 76.9272 14.087 76.974ZM165.914 76.974C172.817 76.9272 178.452 82.4856 178.498 89.389C178.5 89.5925 178.5 89.7962 178.5 90C178.5 90.2038 178.5 90.4075 178.498 90.611C178.452 97.5144 172.817 103.073 165.914 103.026C159.011 102.979 153.452 97.3449 153.499 90.4415C153.5 90.2945 153.5 90.1473 153.5 90C153.5 89.8527 153.5 89.7055 153.499 89.5585C153.452 82.6551 159.011 77.0208 165.914 76.974ZM17.7255 116.689C23.7246 113.273 31.3571 115.367 34.7732 121.367C34.9175 121.62 35.0635 121.872 35.2113 122.124C38.7097 128.075 36.7212 135.736 30.7697 139.234C24.8182 142.733 17.1575 140.744 13.6591 134.793C13.4532 134.442 13.2496 134.091 13.0483 133.737C9.63229 127.738 11.7263 120.106 17.7255 116.689ZM162.276 116.689C168.275 120.105 170.369 127.738 166.953 133.737C166.751 134.091 166.548 134.442 166.342 134.793C162.843 140.744 155.183 142.733 149.231 139.234C143.28 135.736 141.291 128.075 144.79 122.124C144.937 121.872 145.083 121.62 145.228 121.367C148.644 115.367 156.276 113.273 162.276 116.689ZM40.7661 149.231C44.2646 143.279 51.9253 141.291 57.8767 144.789C58.128 144.937 58.3804 145.083 58.6339 145.227C64.633 148.643 66.7271 156.276 63.311 162.275C59.895 168.274 52.2625 170.368 46.2633 166.952C45.9099 166.751 45.558 166.547 45.2077 166.341C39.2562 162.843 37.2677 155.182 40.7661 149.231ZM139.235 149.231C142.733 155.182 140.745 162.843 134.793 166.341C134.443 166.547 134.091 166.751 133.738 166.952C127.739 170.368 120.106 168.274 116.69 162.275C113.274 156.276 115.368 148.643 121.367 145.227C121.621 145.083 121.873 144.937 122.124 144.789C128.076 141.291 135.736 143.279 139.235 149.231ZM76.9745 165.913C77.0213 159.01 82.6556 153.452 89.559 153.499C89.6242 153.499 89.6894 153.499 89.7546 153.5C89.8365 153.5 89.9185 153.5 90.0005 153.5C90.1478 153.5 90.295 153.499 90.442 153.499C97.3454 153.452 102.98 159.01 103.026 165.913C103.073 172.817 97.5149 178.451 90.6115 178.498C90.408 178.499 90.2043 178.5 90.0005 178.5C89.7967 178.5 89.593 178.499 89.3895 178.498C82.4861 178.451 76.9277 172.817 76.9745 165.913Z" fill="#333333"/>
</svg>
