<svg width="180" height="180" viewBox="0 0 180 180" fill="none" xmlns="http://www.w3.org/2000/svg">
<path fill-rule="evenodd" clip-rule="evenodd" d="M42.7114 30.1327C48.534 35.2201 49.1301 44.0643 44.0427 49.8869C34.666 60.6189 29 74.6305 29 90C29 123.689 56.3106 151 90 151C123.689 151 151 123.689 151 90C151 74.6305 145.334 60.6189 135.957 49.8869C130.87 44.0643 131.466 35.2201 137.289 30.1327C143.111 25.0454 151.955 25.6415 157.043 31.4641C170.707 47.1029 179 67.6002 179 90C179 139.153 139.153 179 90 179C40.8467 179 1 139.153 1 90C1 67.6002 9.29329 47.1029 22.9573 31.4641C28.0446 25.6415 36.8888 25.0454 42.7114 30.1327Z" fill="#333333"/>
</svg>
