<svg width="181" height="181" viewBox="0 0 181 181" fill="none" xmlns="http://www.w3.org/2000/svg">
<path fill-rule="evenodd" clip-rule="evenodd" d="M90.0907 1.50093C90.2273 1.50031 90.3638 1.5 90.5005 1.5C90.6371 1.5 90.7737 1.50031 90.9102 1.50093C97.8137 1.53214 103.385 7.15382 103.354 14.0573C103.322 20.9608 97.7007 26.5319 90.7972 26.5007C90.6984 26.5002 90.5995 26.5 90.5005 26.5C90.4015 26.5 90.3026 26.5002 90.2038 26.5007C83.3003 26.5319 77.6786 20.9608 77.6474 14.0573C77.6162 7.15382 83.1872 1.53214 90.0907 1.50093ZM166.943 77.6469C173.847 77.6157 179.468 83.1868 179.5 90.0902C179.5 90.2268 179.5 90.3634 179.5 90.5C179.5 90.5745 179.5 90.649 179.5 90.7235C179.5 90.7856 179.5 90.8477 179.5 90.9097C179.468 97.8132 173.847 103.384 166.943 103.353C160.04 103.322 154.469 97.7002 154.5 90.7967C154.5 90.6979 154.5 90.599 154.5 90.5C154.5 90.401 154.5 90.3021 154.5 90.2033C154.469 83.2998 160.04 77.6781 166.943 77.6469ZM14.0578 77.6469C20.9613 77.6781 26.5324 83.2998 26.5012 90.2033C26.5007 90.3021 26.5005 90.401 26.5005 90.5C26.5005 90.599 26.5007 90.6979 26.5012 90.7967C26.5324 97.7002 20.9613 103.322 14.0578 103.353C7.15431 103.384 1.53262 97.8132 1.50141 90.9098C1.5008 90.7732 1.50049 90.6366 1.50049 90.5C1.50049 90.3634 1.5008 90.2268 1.50141 90.0903C1.53262 83.1868 7.15431 77.6157 14.0578 77.6469ZM77.6474 166.943C77.6786 160.039 83.3003 154.468 90.2038 154.499C90.3026 154.5 90.4015 154.5 90.5005 154.5C90.5995 154.5 90.6984 154.5 90.7972 154.499C97.7007 154.468 103.322 160.039 103.354 166.943C103.385 173.846 97.8137 179.468 90.9102 179.499C90.7737 179.5 90.6371 179.5 90.5005 179.5C90.3638 179.5 90.2273 179.5 90.0907 179.499C83.1873 179.468 77.6162 173.846 77.6474 166.943Z" fill="#333333"/>
</svg>
