<svg width="180" height="180" viewBox="0 0 180 180" fill="none" xmlns="http://www.w3.org/2000/svg">
<path fill-rule="evenodd" clip-rule="evenodd" d="M152 90C152 124.242 124.242 152 90 152C77.9871 152 66.7721 148.583 57.2738 142.669C58.0792 142.153 58.8418 141.543 59.5459 140.839L142.838 57.5467C148.649 66.9866 152 78.1019 152 90ZM38.399 124.382C38.9598 123.443 39.6448 122.556 40.4541 121.747L124.033 38.1676C114.264 31.7399 102.569 28 90 28C55.7583 28 28 55.7583 28 90C28 102.719 31.8298 114.543 38.399 124.382ZM180 90C180 139.706 139.706 180 90 180C40.2944 180 0 139.706 0 90C0 40.2944 40.2944 0 90 0C139.706 0 180 40.2944 180 90Z" fill="#333333"/>
</svg>
