<svg width="180" height="181" viewBox="0 0 180 181" fill="none" xmlns="http://www.w3.org/2000/svg">
<path fill-rule="evenodd" clip-rule="evenodd" d="M89.4104 2.50193C89.6071 2.50064 89.8038 2.5 90.0007 2.5C90.1976 2.5 90.3944 2.50064 90.591 2.50193C97.4945 2.54716 103.054 8.18014 103.009 15.0836C102.964 21.987 97.3307 27.5466 90.4273 27.5014C90.2852 27.5005 90.143 27.5 90.0007 27.5C89.8584 27.5 89.7162 27.5005 89.5742 27.5014C82.6708 27.5466 77.0378 21.987 76.9926 15.0836C76.9473 8.18014 82.507 2.54716 89.4104 2.50193ZM134.485 28.1232C139.334 23.2094 147.248 23.1571 152.162 28.0062C152.441 28.2819 152.719 28.5593 152.994 28.8386C157.844 33.7523 157.791 41.6667 152.878 46.5159C147.964 51.365 140.049 51.3127 135.2 46.3989C135.002 46.1981 134.803 45.9986 134.602 45.8005C129.688 40.9513 129.636 33.0369 134.485 28.1232ZM45.5166 28.1232C50.3658 33.0369 50.3134 40.9513 45.3997 45.8005C45.1989 45.9986 44.9994 46.1981 44.8012 46.399C39.952 51.3127 32.0376 51.365 27.1239 46.5159C22.2102 41.6667 22.1578 33.7523 27.007 28.8386C27.2826 28.5593 27.56 28.2819 27.8393 28.0063C32.7531 23.1571 40.6675 23.2095 45.5166 28.1232ZM165.917 77.9918C172.821 77.9466 178.454 83.5063 178.499 90.4097C178.5 90.6063 178.501 90.8031 178.501 91C178.501 91.1969 178.5 91.3937 178.499 91.5903C178.454 98.4937 172.821 104.053 165.917 104.008C159.014 103.963 153.454 98.3299 153.499 91.4265C153.5 91.2845 153.501 91.1423 153.501 91C153.501 90.8577 153.5 90.7155 153.499 90.5735C153.454 83.6701 159.014 78.0371 165.917 77.9918ZM14.0843 77.9918C20.9877 78.0371 26.5474 83.6701 26.5021 90.5735C26.5012 90.7155 26.5007 90.8577 26.5007 91C26.5007 91.1423 26.5012 91.2845 26.5021 91.4265C26.5474 98.3299 20.9877 103.963 14.0843 104.008C7.18088 104.053 1.54789 98.4937 1.50267 91.5903C1.50138 91.3937 1.50073 91.1969 1.50073 91C1.50073 90.8031 1.50138 90.6063 1.50267 90.4097C1.54789 83.5063 7.18088 77.9466 14.0843 77.9918ZM152.878 135.484C157.791 140.333 157.844 148.248 152.994 153.161C152.719 153.441 152.441 153.718 152.162 153.994C147.248 158.843 139.334 158.791 134.485 153.877C129.636 148.963 129.688 141.049 134.602 136.2C134.803 136.001 135.002 135.802 135.2 135.601C140.049 130.687 147.964 130.635 152.878 135.484ZM27.1239 135.484C32.0377 130.635 39.952 130.687 44.8012 135.601C44.9994 135.802 45.1989 136.001 45.3997 136.2C50.3134 141.049 50.3658 148.963 45.5166 153.877C40.6675 158.791 32.7531 158.843 27.8393 153.994C27.5601 153.718 27.2826 153.441 27.007 153.161C22.1578 148.248 22.2102 140.333 27.1239 135.484ZM76.9926 166.916C77.0378 160.013 82.6708 154.453 89.5742 154.499C89.7162 154.5 89.8584 154.5 90.0007 154.5C90.143 154.5 90.2852 154.5 90.4273 154.499C97.3307 154.453 102.964 160.013 103.009 166.916C103.054 173.82 97.4945 179.453 90.5911 179.498C90.3944 179.499 90.1976 179.5 90.0007 179.5C89.8038 179.5 89.6071 179.499 89.4104 179.498C82.507 179.453 76.9473 173.82 76.9926 166.916Z" fill="#333333"/>
</svg>
