<svg width="180" height="180" viewBox="0 0 180 180" fill="none" xmlns="http://www.w3.org/2000/svg">
<path fill-rule="evenodd" clip-rule="evenodd" d="M180.001 90C180.001 139.706 139.707 180 90.001 180C40.2953 180 0.000976562 139.706 0.000976562 90C0.000976562 40.2944 40.2953 0 90.001 0C139.707 0 180.001 40.2944 180.001 90ZM90.0004 155C84.4776 155 80.0004 150.523 80.0004 145V113.53L60.0714 133.459C56.1661 137.365 49.8345 137.365 45.9293 133.459C42.024 129.554 42.024 123.222 45.9293 119.317L65.2465 100H35.0005C29.4776 100 25.0005 95.5229 25.0005 90C25.0005 84.4772 29.4776 80 35.0005 80H65.2466L45.0714 59.8248C41.1661 55.9196 41.1661 49.5879 45.0714 45.6827C48.9766 41.7774 55.3083 41.7774 59.2135 45.6827L80.0004 66.4696V35C80.0004 29.4771 84.4776 25 90.0004 25C95.5233 25 100 29.4771 100 35V65.2461L120.175 45.071C124.081 41.1658 130.412 41.1658 134.318 45.071C138.223 48.9763 138.223 55.3079 134.318 59.2132L113.531 80H145C150.523 80 155 84.4772 155 90C155 95.5229 150.523 100 145 100H113.531L133.46 119.929C137.365 123.834 137.365 130.166 133.46 134.071C129.554 137.976 123.223 137.976 119.318 134.071L100 114.754V145C100 150.523 95.5233 155 90.0004 155Z" fill="#333333"/>
</svg>
